<mxfile host="app.diagrams.net" agent="Mozilla/5.0 (Windows NT 10.0; Win64; x64) AppleWebKit/537.36 (KHTML, like Gecko) Chrome/128.0.0.0 Safari/537.36" version="24.7.12">
  <diagram name="Page-1" id="lSl2WAbvraQFVE3Md_VB">
    <mxGraphModel dx="1050" dy="522" grid="1" gridSize="10" guides="1" tooltips="1" connect="1" arrows="1" fold="1" page="1" pageScale="1" pageWidth="850" pageHeight="1100" math="0" shadow="0">
      <root>
        <mxCell id="0" />
        <mxCell id="1" parent="0" />
        <mxCell id="-1t2_lQyple8jqqOothF-1" value="Aquaculture" style="swimlane;whiteSpace=wrap;html=1;" parent="1" vertex="1">
          <mxGeometry x="290" y="30" width="410" height="1020" as="geometry" />
        </mxCell>
        <mxCell id="XaAiHShwyc2cj8Ni_Lh_-2" value="View Aquaculture Products" style="ellipse;whiteSpace=wrap;html=1;" vertex="1" parent="-1t2_lQyple8jqqOothF-1">
          <mxGeometry x="40" y="30" width="120" height="80" as="geometry" />
        </mxCell>
        <mxCell id="XaAiHShwyc2cj8Ni_Lh_-3" value="View Aquaculture Farms" style="ellipse;whiteSpace=wrap;html=1;" vertex="1" parent="-1t2_lQyple8jqqOothF-1">
          <mxGeometry x="40" y="120" width="120" height="80" as="geometry" />
        </mxCell>
        <mxCell id="XaAiHShwyc2cj8Ni_Lh_-4" value="Purchase Aquaculture Products" style="ellipse;whiteSpace=wrap;html=1;" vertex="1" parent="-1t2_lQyple8jqqOothF-1">
          <mxGeometry x="40" y="220" width="120" height="80" as="geometry" />
        </mxCell>
        <mxCell id="XaAiHShwyc2cj8Ni_Lh_-5" value="View Aquaculture Articles" style="ellipse;whiteSpace=wrap;html=1;" vertex="1" parent="-1t2_lQyple8jqqOothF-1">
          <mxGeometry x="40" y="320" width="120" height="80" as="geometry" />
        </mxCell>
        <mxCell id="XaAiHShwyc2cj8Ni_Lh_-6" value="Add Aquaculture Products" style="ellipse;whiteSpace=wrap;html=1;" vertex="1" parent="-1t2_lQyple8jqqOothF-1">
          <mxGeometry x="230" y="30" width="120" height="80" as="geometry" />
        </mxCell>
        <mxCell id="XaAiHShwyc2cj8Ni_Lh_-7" value="Modify Aquaculture Products" style="ellipse;whiteSpace=wrap;html=1;" vertex="1" parent="-1t2_lQyple8jqqOothF-1">
          <mxGeometry x="230" y="120" width="120" height="80" as="geometry" />
        </mxCell>
        <mxCell id="XaAiHShwyc2cj8Ni_Lh_-8" value="Delete Aquaculture Products" style="ellipse;whiteSpace=wrap;html=1;" vertex="1" parent="-1t2_lQyple8jqqOothF-1">
          <mxGeometry x="230" y="210" width="120" height="80" as="geometry" />
        </mxCell>
        <mxCell id="XaAiHShwyc2cj8Ni_Lh_-9" value="Add Aquaculture Farms" style="ellipse;whiteSpace=wrap;html=1;" vertex="1" parent="-1t2_lQyple8jqqOothF-1">
          <mxGeometry x="230" y="300" width="120" height="80" as="geometry" />
        </mxCell>
        <mxCell id="XaAiHShwyc2cj8Ni_Lh_-10" value="Modify Aquaculture Farms" style="ellipse;whiteSpace=wrap;html=1;" vertex="1" parent="-1t2_lQyple8jqqOothF-1">
          <mxGeometry x="230" y="390" width="120" height="80" as="geometry" />
        </mxCell>
        <mxCell id="XaAiHShwyc2cj8Ni_Lh_-11" value="Delete Aquaculture Farms" style="ellipse;whiteSpace=wrap;html=1;" vertex="1" parent="-1t2_lQyple8jqqOothF-1">
          <mxGeometry x="230" y="480" width="120" height="80" as="geometry" />
        </mxCell>
        <mxCell id="XaAiHShwyc2cj8Ni_Lh_-12" value="Add Aquaculture Articles" style="ellipse;whiteSpace=wrap;html=1;" vertex="1" parent="-1t2_lQyple8jqqOothF-1">
          <mxGeometry x="230" y="570" width="120" height="80" as="geometry" />
        </mxCell>
        <mxCell id="XaAiHShwyc2cj8Ni_Lh_-13" value="Modify Aquaculture Articles" style="ellipse;whiteSpace=wrap;html=1;" vertex="1" parent="-1t2_lQyple8jqqOothF-1">
          <mxGeometry x="230" y="670" width="120" height="80" as="geometry" />
        </mxCell>
        <mxCell id="XaAiHShwyc2cj8Ni_Lh_-14" value="Delete Aquaculture Articles" style="ellipse;whiteSpace=wrap;html=1;" vertex="1" parent="-1t2_lQyple8jqqOothF-1">
          <mxGeometry x="230" y="770" width="120" height="80" as="geometry" />
        </mxCell>
        <mxCell id="XaAiHShwyc2cj8Ni_Lh_-15" value="View Transaction Histories" style="ellipse;whiteSpace=wrap;html=1;" vertex="1" parent="-1t2_lQyple8jqqOothF-1">
          <mxGeometry x="230" y="870" width="120" height="80" as="geometry" />
        </mxCell>
        <mxCell id="-1t2_lQyple8jqqOothF-2" value="User" style="shape=umlActor;verticalLabelPosition=bottom;verticalAlign=top;html=1;outlineConnect=0;" parent="1" vertex="1">
          <mxGeometry x="200" y="260" width="30" height="60" as="geometry" />
        </mxCell>
        <mxCell id="-1t2_lQyple8jqqOothF-4" value="Admin" style="shape=umlActor;verticalLabelPosition=bottom;verticalAlign=top;html=1;outlineConnect=0;" parent="1" vertex="1">
          <mxGeometry x="790" y="240" width="30" height="60" as="geometry" />
        </mxCell>
        <mxCell id="-1t2_lQyple8jqqOothF-21" value="" style="endArrow=none;html=1;rounded=0;entryX=0.5;entryY=0.5;entryDx=0;entryDy=0;entryPerimeter=0;exitX=1;exitY=0.5;exitDx=0;exitDy=0;" parent="1" source="XaAiHShwyc2cj8Ni_Lh_-7" target="-1t2_lQyple8jqqOothF-4" edge="1">
          <mxGeometry width="50" height="50" relative="1" as="geometry">
            <mxPoint x="660" y="180" as="sourcePoint" />
            <mxPoint x="500" y="350" as="targetPoint" />
            <Array as="points" />
          </mxGeometry>
        </mxCell>
        <mxCell id="-1t2_lQyple8jqqOothF-22" value="" style="endArrow=none;html=1;rounded=0;entryX=0.5;entryY=0.5;entryDx=0;entryDy=0;entryPerimeter=0;exitX=1;exitY=0.5;exitDx=0;exitDy=0;" parent="1" source="XaAiHShwyc2cj8Ni_Lh_-8" target="-1t2_lQyple8jqqOothF-4" edge="1">
          <mxGeometry width="50" height="50" relative="1" as="geometry">
            <mxPoint x="660" y="260" as="sourcePoint" />
            <mxPoint x="500" y="350" as="targetPoint" />
          </mxGeometry>
        </mxCell>
        <mxCell id="-1t2_lQyple8jqqOothF-23" value="" style="endArrow=none;html=1;rounded=0;entryX=0.5;entryY=0.5;entryDx=0;entryDy=0;entryPerimeter=0;exitX=1;exitY=0.5;exitDx=0;exitDy=0;" parent="1" source="XaAiHShwyc2cj8Ni_Lh_-9" target="-1t2_lQyple8jqqOothF-4" edge="1">
          <mxGeometry width="50" height="50" relative="1" as="geometry">
            <mxPoint x="640" y="330" as="sourcePoint" />
            <mxPoint x="500" y="350" as="targetPoint" />
          </mxGeometry>
        </mxCell>
        <mxCell id="-1t2_lQyple8jqqOothF-24" value="" style="endArrow=none;html=1;rounded=0;entryX=0.5;entryY=0.5;entryDx=0;entryDy=0;entryPerimeter=0;exitX=1;exitY=0.5;exitDx=0;exitDy=0;" parent="1" source="XaAiHShwyc2cj8Ni_Lh_-10" target="-1t2_lQyple8jqqOothF-4" edge="1">
          <mxGeometry width="50" height="50" relative="1" as="geometry">
            <mxPoint x="640" y="400" as="sourcePoint" />
            <mxPoint x="500" y="350" as="targetPoint" />
          </mxGeometry>
        </mxCell>
        <mxCell id="-1t2_lQyple8jqqOothF-25" value="" style="endArrow=none;html=1;rounded=0;entryX=0.5;entryY=0.5;entryDx=0;entryDy=0;entryPerimeter=0;exitX=1;exitY=0.5;exitDx=0;exitDy=0;" parent="1" source="XaAiHShwyc2cj8Ni_Lh_-11" target="-1t2_lQyple8jqqOothF-4" edge="1">
          <mxGeometry width="50" height="50" relative="1" as="geometry">
            <mxPoint x="650" y="510" as="sourcePoint" />
            <mxPoint x="500" y="350" as="targetPoint" />
          </mxGeometry>
        </mxCell>
        <mxCell id="-1t2_lQyple8jqqOothF-26" value="" style="endArrow=none;html=1;rounded=0;entryX=0.5;entryY=0.5;entryDx=0;entryDy=0;entryPerimeter=0;exitX=1;exitY=0.5;exitDx=0;exitDy=0;" parent="1" source="XaAiHShwyc2cj8Ni_Lh_-12" target="-1t2_lQyple8jqqOothF-4" edge="1">
          <mxGeometry width="50" height="50" relative="1" as="geometry">
            <mxPoint x="650" y="550" as="sourcePoint" />
            <mxPoint x="500" y="520" as="targetPoint" />
          </mxGeometry>
        </mxCell>
        <mxCell id="-1t2_lQyple8jqqOothF-27" value="" style="endArrow=none;html=1;rounded=0;entryX=0.5;entryY=0.5;entryDx=0;entryDy=0;entryPerimeter=0;exitX=1;exitY=0.5;exitDx=0;exitDy=0;" parent="1" source="XaAiHShwyc2cj8Ni_Lh_-13" target="-1t2_lQyple8jqqOothF-4" edge="1">
          <mxGeometry width="50" height="50" relative="1" as="geometry">
            <mxPoint x="640" y="610" as="sourcePoint" />
            <mxPoint x="500" y="520" as="targetPoint" />
          </mxGeometry>
        </mxCell>
        <mxCell id="-1t2_lQyple8jqqOothF-28" value="" style="endArrow=none;html=1;rounded=0;exitX=0.5;exitY=0.5;exitDx=0;exitDy=0;exitPerimeter=0;entryX=0;entryY=0.5;entryDx=0;entryDy=0;" parent="1" source="-1t2_lQyple8jqqOothF-2" target="XaAiHShwyc2cj8Ni_Lh_-2" edge="1">
          <mxGeometry width="50" height="50" relative="1" as="geometry">
            <mxPoint x="450" y="320" as="sourcePoint" />
            <mxPoint x="340" y="110" as="targetPoint" />
          </mxGeometry>
        </mxCell>
        <mxCell id="-1t2_lQyple8jqqOothF-29" value="" style="endArrow=none;html=1;rounded=0;exitX=0.5;exitY=0.5;exitDx=0;exitDy=0;exitPerimeter=0;entryX=0;entryY=0.5;entryDx=0;entryDy=0;" parent="1" source="-1t2_lQyple8jqqOothF-2" target="XaAiHShwyc2cj8Ni_Lh_-3" edge="1">
          <mxGeometry width="50" height="50" relative="1" as="geometry">
            <mxPoint x="450" y="320" as="sourcePoint" />
            <mxPoint x="340" y="190" as="targetPoint" />
          </mxGeometry>
        </mxCell>
        <mxCell id="-1t2_lQyple8jqqOothF-30" value="" style="endArrow=none;html=1;rounded=0;entryX=0;entryY=0.5;entryDx=0;entryDy=0;exitX=0.5;exitY=0.5;exitDx=0;exitDy=0;exitPerimeter=0;" parent="1" source="-1t2_lQyple8jqqOothF-2" target="XaAiHShwyc2cj8Ni_Lh_-4" edge="1">
          <mxGeometry width="50" height="50" relative="1" as="geometry">
            <mxPoint x="240" y="220" as="sourcePoint" />
            <mxPoint x="350" y="260" as="targetPoint" />
          </mxGeometry>
        </mxCell>
        <mxCell id="-1t2_lQyple8jqqOothF-31" value="" style="endArrow=none;html=1;rounded=0;exitX=0;exitY=0.5;exitDx=0;exitDy=0;entryX=0.5;entryY=0.5;entryDx=0;entryDy=0;entryPerimeter=0;" parent="1" source="XaAiHShwyc2cj8Ni_Lh_-5" target="-1t2_lQyple8jqqOothF-2" edge="1">
          <mxGeometry width="50" height="50" relative="1" as="geometry">
            <mxPoint x="350" y="340" as="sourcePoint" />
            <mxPoint x="500" y="270" as="targetPoint" />
          </mxGeometry>
        </mxCell>
        <mxCell id="-1t2_lQyple8jqqOothF-32" value="" style="endArrow=none;html=1;rounded=0;exitX=1;exitY=0.5;exitDx=0;exitDy=0;entryX=0.5;entryY=0.5;entryDx=0;entryDy=0;entryPerimeter=0;" parent="1" source="XaAiHShwyc2cj8Ni_Lh_-14" target="-1t2_lQyple8jqqOothF-4" edge="1">
          <mxGeometry width="50" height="50" relative="1" as="geometry">
            <mxPoint x="640" y="680" as="sourcePoint" />
            <mxPoint x="795" y="390" as="targetPoint" />
          </mxGeometry>
        </mxCell>
        <mxCell id="-1t2_lQyple8jqqOothF-33" value="" style="endArrow=none;html=1;rounded=0;entryX=0.5;entryY=0.5;entryDx=0;entryDy=0;entryPerimeter=0;exitX=1;exitY=0.5;exitDx=0;exitDy=0;" parent="1" source="XaAiHShwyc2cj8Ni_Lh_-15" target="-1t2_lQyple8jqqOothF-4" edge="1">
          <mxGeometry width="50" height="50" relative="1" as="geometry">
            <mxPoint x="640" y="760" as="sourcePoint" />
            <mxPoint x="500" y="600" as="targetPoint" />
          </mxGeometry>
        </mxCell>
        <mxCell id="60lH9zLmfhelWgrufkJM-1" value="" style="endArrow=none;html=1;rounded=0;entryX=0.5;entryY=0.5;entryDx=0;entryDy=0;entryPerimeter=0;exitX=1;exitY=0.5;exitDx=0;exitDy=0;" parent="1" source="XaAiHShwyc2cj8Ni_Lh_-6" target="-1t2_lQyple8jqqOothF-4" edge="1">
          <mxGeometry width="50" height="50" relative="1" as="geometry">
            <mxPoint x="660" y="110" as="sourcePoint" />
            <mxPoint x="450" y="250" as="targetPoint" />
          </mxGeometry>
        </mxCell>
      </root>
    </mxGraphModel>
  </diagram>
</mxfile>
